<?xml version="1.0" standalone="no"?><!DOCTYPE svg PUBLIC "-//W3C//DTD SVG 1.1//EN" "http://www.w3.org/Graphics/SVG/1.1/DTD/svg11.dtd"><svg class="jp-icon-selectable" fill="#a91d22" viewBox="0 0 1024 1024" version="1.1" xmlns="http://www.w3.org/2000/svg" width="200" height="200"><path d="M192 128h640c35.3 0 64 28.7 64 64v640c0 35.3-28.7 64-64 64H192c-35.3 0-64-28.7-64-64V192c0-35.3 28.7-64 64-64z m26 88c-21 0-37 17-37 37v518c0 21 17 37 37 37h588c21 0 37-17 37-37V253c0-21-17-37-37-37H218z"/><path d="M298 352h152c46 0 82 33 82 80 0 33-20 60-49 71l66 124h-78l-58-114h-46v114h-69V352z m69 64v89h74c25 0 41-18 41-44 0-27-16-45-41-45h-74zM618 562c0 24 27 38 65 38 33 0 53-9 53-26 0-15-13-21-58-29-71-12-101-32-101-72 0-38 39-66 100-66 53 0 92 21 99 60h-64c-4-14-19-21-39-21-22 0-37 8-37 22 0 13 12 19 53 26 73 13 109 33 109 75 0 42-44 71-117 71-65 0-110-29-114-78h51z"/></svg>
